<?xml version="1.0" standalone="no"?>
<!DOCTYPE svg PUBLIC "-//W3C//DTD SVG 20010904//EN"
 "http://www.w3.org/TR/2001/REC-SVG-20010904/DTD/svg10.dtd">
<svg version="1.0" xmlns="http://www.w3.org/2000/svg"
 width="200.000000pt" height="200.000000pt" viewBox="0 0 200.000000 200.000000"
 preserveAspectRatio="xMidYMid meet">

<g transform="translate(0.000000,200.000000) scale(0.100000,-0.100000)"
fill="#000000" stroke="none">
<path d="M60 1940 c-20 -20 -20 -33 -20 -940 0 -907 0 -920 20 -940 20 -20 33
-20 940 -20 907 0 920 0 940 20 24 24 25 38 4 68 l-15 22 -890 0 -889 0 0 889
0 890 -22 15 c-30 21 -44 20 -68 -4z"/>
<path d="M286 1604 c-9 -8 -16 -25 -16 -38 0 -15 86 -118 266 -319 l267 -297
171 0 171 0 200 -200 200 -200 -61 0 c-67 0 -84 -11 -84 -52 0 -50 32 -60 173
-56 86 2 129 7 140 17 14 11 17 35 17 151 0 120 -2 139 -18 153 -45 41 -92 3
-92 -75 l0 -52 -213 212 -213 212 -171 0 -172 0 -251 280 c-262 291 -276 303
-314 264z"/>
</g>
</svg>
