<?xml version="1.0" standalone="no"?>
<!DOCTYPE svg PUBLIC "-//W3C//DTD SVG 20010904//EN"
 "http://www.w3.org/TR/2001/REC-SVG-20010904/DTD/svg10.dtd">
<svg version="1.0" xmlns="http://www.w3.org/2000/svg"
 width="512.000000pt" height="512.000000pt" viewBox="0 0 512.000000 512.000000"
 preserveAspectRatio="xMidYMid meet">

<g transform="translate(0.000000,512.000000) scale(0.100000,-0.100000)"
fill="#000000" stroke="none">
<path d="M595 5103 c-290 -62 -519 -294 -579 -585 -32 -155 -13 -239 64 -278
38 -19 58 -20 578 -20 l540 0 -5 -67 c-26 -396 -96 -781 -268 -1470 -240 -969
-305 -1335 -322 -1807 -7 -201 6 -296 54 -410 75 -179 230 -334 408 -409 141
-59 68 -57 1795 -57 1706 0 1648 -2 1784 51 83 33 186 103 255 172 134 136
203 288 218 475 7 98 -15 150 -77 182 -38 19 -58 20 -580 20 l-541 0 5 33 c3
17 8 77 11 132 19 314 97 722 273 1430 224 896 293 1288 308 1745 6 154 4 199
-10 269 -62 303 -290 533 -588 595 -69 14 -250 16 -1665 15 -1371 -1 -1598 -3
-1658 -16z m262 -297 c74 -20 139 -55 194 -103 47 -43 101 -119 114 -160 l6
-23 -421 0 -421 0 6 23 c13 42 67 117 116 161 110 99 268 139 406 102z m3005
3 c172 -37 310 -175 347 -347 28 -130 -3 -535 -70 -912 -36 -206 -88 -436
-209 -930 -203 -831 -261 -1129 -290 -1491 -6 -79 -14 -163 -16 -186 l-5 -43
-850 0 c-832 0 -851 0 -889 -20 -46 -23 -80 -81 -80 -134 0 -58 -21 -138 -52
-200 -86 -170 -281 -270 -467 -238 -100 17 -176 56 -246 127 -114 113 -141
208 -131 455 17 419 74 744 281 1590 250 1021 307 1354 309 1810 l1 215 -33
95 c-18 52 -51 123 -72 158 l-39 62 1229 0 c878 0 1244 -3 1282 -11z m928
-4215 c0 -3 -14 -33 -32 -66 -36 -68 -113 -142 -182 -177 -107 -53 -59 -51
-1388 -51 l-1238 0 34 53 c38 60 82 162 92 213 l6 34 1354 0 c745 0 1354 -3
1354 -6z"/>
<path d="M1878 3899 c-43 -22 -78 -81 -78 -129 0 -50 35 -107 80 -130 38 -20
57 -20 955 -20 898 0 917 0 955 20 45 23 80 80 80 130 0 50 -35 107 -80 130
-38 20 -56 20 -957 20 -894 -1 -919 -1 -955 -21z"/>
<path d="M1742 3303 c-52 -25 -77 -69 -77 -133 0 -41 6 -63 22 -86 48 -67 -7
-64 1017 -64 890 0 928 1 964 19 43 22 82 84 82 131 0 47 -39 109 -82 131 -36
18 -74 19 -965 19 -834 0 -931 -2 -961 -17z"/>
<path d="M1602 2703 c-52 -25 -77 -69 -77 -133 0 -41 6 -63 22 -86 48 -67 -7
-64 1013 -64 1020 0 965 -3 1013 64 31 43 31 129 0 172 -48 67 7 64 -1015 64
-830 0 -926 -2 -956 -17z"/>
<path d="M1446 2096 c-100 -60 -98 -198 4 -255 38 -21 39 -21 966 -21 l929 0
39 23 c102 58 98 211 -8 261 -31 14 -126 16 -963 16 l-928 0 -39 -24z"/>
</g>
</svg>
