<?xml version="1.0" standalone="no"?>
<!DOCTYPE svg PUBLIC "-//W3C//DTD SVG 20010904//EN"
 "http://www.w3.org/TR/2001/REC-SVG-20010904/DTD/svg10.dtd">
<svg version="1.0" xmlns="http://www.w3.org/2000/svg"
 width="320.000000pt" height="320.000000pt" viewBox="0 0 320.000000 320.000000"
 preserveAspectRatio="xMidYMid meet">

<g transform="translate(0.000000,320.000000) scale(0.100000,-0.100000)"
fill="#000000" stroke="none">
<path d="M1549 3020 c-53 -28 -138 -126 -173 -200 -28 -59 -31 -76 -34 -181
-5 -133 13 -245 53 -341 42 -99 43 -92 -23 -106 -116 -24 -222 -77 -319 -159
l-53 -44 -29 20 c-73 52 -204 66 -325 35 -140 -36 -343 -154 -459 -266 -74
-73 -76 -101 -7 -135 89 -44 350 -54 573 -23 44 6 81 10 82 8 2 -2 -1 -37 -7
-78 -5 -41 -7 -118 -4 -171 12 -193 53 -342 141 -506 25 -47 45 -87 45 -89 0
-2 -8 -4 -18 -4 -38 0 -142 -62 -185 -110 -90 -100 -167 -292 -167 -415 0 -80
8 -90 67 -89 111 2 355 143 528 306 52 48 63 55 80 45 11 -6 49 -21 85 -33 36
-13 68 -29 71 -36 4 -7 25 -51 47 -98 23 -47 54 -100 70 -119 l29 -35 42 56
c23 31 57 91 74 133 l32 77 55 17 c30 10 68 25 85 33 l30 16 60 -57 c159 -149
391 -287 512 -307 30 -4 44 -1 62 13 21 17 24 27 22 79 -4 129 -79 316 -168
414 -43 48 -147 110 -185 110 -10 0 -18 2 -18 4 0 2 20 42 45 89 112 210 164
467 137 677 -5 41 -8 76 -7 78 2 2 38 -2 82 -8 313 -44 612 -9 621 73 9 78
-317 301 -514 351 -121 31 -252 17 -325 -35 l-29 -20 -66 55 c-91 75 -183 119
-330 156 l-41 10 28 57 c49 101 64 182 64 343 0 142 -1 146 -31 210 -55 115
-170 221 -238 220 -17 -1 -47 -9 -67 -20z m314 -948 c38 -11 73 -24 79 -30 7
-7 -15 -41 -68 -105 l-79 -96 -180 0 -180 0 -70 86 c-38 47 -74 92 -78 99 -10
18 31 36 128 58 101 22 355 16 448 -12z m-616 -184 c38 -46 73 -89 77 -95 4
-8 -34 -73 -100 -169 l-107 -156 133 -133 132 -133 -89 -109 -90 -109 101
-107 101 -108 42 43 43 43 -67 67 -66 67 65 78 65 78 128 0 128 0 65 -78 65
-78 -67 -68 -66 -67 43 -42 44 -43 100 108 101 108 -90 109 -91 108 133 133
132 132 -99 149 c-55 82 -102 154 -106 160 -8 13 139 194 157 194 24 0 120
-114 153 -181 46 -94 63 -169 70 -305 22 -443 -222 -837 -564 -909 -87 -19
-142 -18 -222 0 -341 81 -579 469 -558 909 7 135 24 211 69 303 32 65 130 183
153 183 7 0 44 -37 82 -82z m618 -259 c33 -51 68 -104 78 -119 l18 -28 -102
-106 -101 -106 -143 0 -143 0 -101 106 c-60 62 -98 111 -94 117 4 7 40 60 81
120 l74 107 186 0 187 0 60 -91z"/>
</g>
</svg>
