<?xml version="1.0" encoding="iso-8859-1"?>
<!-- Uploaded to: SVG Repo, www.svgrepo.com, Generator: SVG Repo Mixer Tools -->
<!DOCTYPE svg PUBLIC "-//W3C//DTD SVG 1.1//EN" "http://www.w3.org/Graphics/SVG/1.1/DTD/svg11.dtd">
<svg fill="#000000" height="800px" width="800px" version="1.1" id="Capa_1" xmlns="http://www.w3.org/2000/svg" xmlns:xlink="http://www.w3.org/1999/xlink" 
	 viewBox="0 0 297 297" xml:space="preserve">
<path d="M104.391,37.468c0-2.138,0-5.716,8.113-5.716c8.112,0,8.112,3.578,8.112,5.716v53.911c0,5.456,4.424,9.879,9.879,9.879
	c5.456,0,9.879-4.423,9.879-9.879V25.474c0-2.138,0-5.717,8.112-5.717c8.112,0,8.112,3.579,8.112,5.717v65.905
	c0,5.456,4.424,9.879,9.879,9.879c5.456,0,9.879-4.423,9.879-9.879V37.468c0-2.138,0-5.716,8.112-5.716
	c8.114,0,8.114,3.578,8.114,5.716v70.212c0,5.455,4.423,9.878,9.878,9.878c5.456,0,9.879-4.423,9.879-9.878V69.291
	c0-1.755,0-6.421,8.114-6.421c8.112,0,8.112,4.666,8.112,6.421V205.62c0,0.156,0.006,0.358,0.014,0.515
	c0.008,0.178,0.724,17.934-9.862,29.036c-5.991,6.284-14.876,9.471-26.405,9.471c-5.456,0-9.879,4.423-9.879,9.879v32.601
	c0,5.455,4.423,9.879,9.879,9.879c5.455,0,9.879-4.424,9.879-9.879v-23.351c12.676-1.686,23.064-6.751,30.973-15.119
	c15.59-16.497,15.283-39.984,15.16-43.244V69.291c0-15.413-11.461-26.179-27.87-26.179c-2.869,0-5.582,0.336-8.114,0.961v-6.605
	c0-15.237-11.2-25.474-27.871-25.474c-3.927,0-7.545,0.575-10.79,1.642C169.414,5.175,160.334,0,148.486,0
	c-11.848,0-20.928,5.175-25.192,13.636c-3.245-1.066-6.862-1.642-10.79-1.642c-16.671,0-27.871,10.236-27.871,25.474v71.806
	c-2.531-0.625-5.244-0.96-8.112-0.96c-16.41,0-27.871,10.765-27.871,26.179v71.128c0,0.227,0.008,0.455,0.022,0.682
	c0.042,0.591,1.094,14.634,9.074,28.654c6.758,11.871,19.583,25.757,43.187,28.824v23.341c0,5.455,4.424,9.879,9.879,9.879
	c5.456,0,9.879-4.424,9.879-9.879V254.52c0-5.456-4.423-9.879-9.879-9.879c-16.24,0-28.214-6.368-35.587-18.928
	c-5.438-9.262-6.646-18.896-6.817-20.533v-70.688c0-1.756,0-6.422,8.113-6.422c8.112,0,8.147,4.666,8.147,6.422v18.788
	c0.001,0.01-0.001,0.02,0,0.029c0.229,2.35,1.219,4.548,2.97,6.17c0.537,0.498,1.114,0.926,1.721,1.289
	c-0.8,3.081-1.229,6.313-1.229,9.643c0,34.711,54.972,67.751,61.24,71.404c1.537,0.896,3.255,1.344,4.975,1.344
	c1.718,0,3.436-0.447,4.975-1.344c6.267-3.653,61.233-36.693,61.233-71.404c0-21.081-17.067-38.232-38.047-38.232
	c-11.152,0-21.198,4.847-28.162,12.556c-6.965-7.709-17.012-12.556-28.165-12.556c-8.1,0-15.611,2.565-21.788,6.917V37.468z
	 M126.179,151.936c10.084,0,18.287,8.288,18.287,18.475c0,5.455,4.423,9.879,9.879,9.879c5.455,0,9.879-4.424,9.879-9.879
	c0-10.187,8.201-18.475,18.282-18.475c10.084,0,18.289,8.288,18.289,18.475c0,16.279-26.7,38.764-46.456,51.303
	c-19.755-12.515-46.451-34.978-46.451-51.303C107.888,160.225,116.093,151.936,126.179,151.936z"/>
</svg>